# xmcd
#
# Track frame offsets:
#	150
#	15122
#	31730
#	48277
#	65395
#	80552
#	95452
#	112695
#	132115
#
# Disc length: 1939 seconds
#
# Revision: 1
# Processed by: cddbd v1.4PL0 Copyright (c) Steve Scherf et al.
# Submitted via: audiograbber 1.80
#
DISCID=5a079109
DTITLE=Boothill - Worried 'Bout The Trouble
DYEAR=1900
DGENRE=
TTITLE0=Burnin' Up The Road
TTITLE1=Sour Mash Whisky
TTITLE2=Old Cadillac
TTITLE3=Does The Sun Shine Any Brighter
TTITLE4=Camille
TTITLE5=Wild And Gentle
TTITLE6=Dash Board Lights
TTITLE7=Hwy 207
TTITLE8=Worried 'Bout The Trouble
EXTD=Disk
EXTT0=
EXTT1=
EXTT2=
EXTT3=
EXTT4=
EXTT5=
EXTT6=
EXTT7=
EXTT8=
PLAYORDER=
